<svg width="40" height="40" viewBox="0 0 40 40" fill="none" xmlns="http://www.w3.org/2000/svg">
<circle cx="20.0002" cy="20" r="20" fill="#01A89E" fill-opacity="0.2"/>
<path d="M21.747 15.8884H11.0325C9.85074 15.8884 8.88965 16.8495 8.88965 18.0313V28.7458C8.88965 29.9276 9.85074 30.8887 11.0325 30.8887H21.747C22.9288 30.8887 23.8899 29.9276 23.8899 28.7458V18.0313C23.8899 16.8495 22.9288 15.8884 21.747 15.8884Z" fill="#333333"/>
<path d="M28.747 8.88867H18.0325C17.4642 8.88867 16.9192 9.11444 16.5173 9.51631C16.1154 9.91818 15.8896 10.4632 15.8896 11.0316V13.1745H24.4612C25.0296 13.1745 25.5746 13.4002 25.9765 13.8021C26.3784 14.204 26.6041 14.749 26.6041 15.3174V23.8889H28.747C29.3154 23.8889 29.8604 23.6632 30.2623 23.2613C30.6641 22.8594 30.8899 22.3144 30.8899 21.746V11.0316C30.8899 10.4632 30.6641 9.91818 30.2623 9.51631C29.8604 9.11444 29.3154 8.88867 28.747 8.88867Z" fill="#333333"/>
</svg>
