<svg width="40" height="40" viewBox="0 0 40 40" fill="none" xmlns="http://www.w3.org/2000/svg">
<circle cx="20.0002" cy="20" r="20" fill="#01A89E" fill-opacity="0.2"/>
<path d="M29.0002 10.9998H11.2225C10.0002 10.9998 9.00024 11.9998 9.00024 13.222V26.5553C9.00024 27.7775 10.0002 28.7775 11.2225 28.7775H29.0002C30.2225 28.7775 31.2225 27.7775 31.2225 26.5553V13.222C31.2225 11.9998 30.2225 10.9998 29.0002 10.9998ZM28.5558 15.722L21.2891 20.2664C20.5669 20.722 19.6558 20.722 18.9336 20.2664L11.6669 15.722C11.5555 15.6594 11.4579 15.5749 11.3801 15.4736C11.3023 15.3723 11.2459 15.2562 11.2142 15.1324C11.1826 15.0086 11.1764 14.8797 11.196 14.7534C11.2156 14.6272 11.2606 14.5062 11.3283 14.3979C11.3961 14.2895 11.485 14.196 11.5899 14.1231C11.6948 14.0501 11.8134 13.9992 11.9386 13.9734C12.0637 13.9476 12.1928 13.9475 12.318 13.973C12.4432 13.9986 12.5619 14.0492 12.6669 14.122L20.1114 18.7775L27.5558 14.122C27.6608 14.0492 27.7795 13.9986 27.9047 13.973C28.0299 13.9475 28.159 13.9476 28.2841 13.9734C28.4093 13.9992 28.5279 14.0501 28.6328 14.1231C28.7377 14.196 28.8267 14.2895 28.8944 14.3979C28.9621 14.5062 29.0071 14.6272 29.0267 14.7534C29.0464 14.8797 29.0401 15.0086 29.0085 15.1324C28.9768 15.2562 28.9204 15.3723 28.8426 15.4736C28.7648 15.5749 28.6672 15.6594 28.5558 15.722Z" fill="#333333"/>
</svg>
