<svg width="40" height="40" viewBox="0 0 40 40" fill="none" xmlns="http://www.w3.org/2000/svg">
<circle cx="19.9998" cy="20" r="20" fill="#01A89E" fill-opacity="0.2"/>
<path d="M31.2442 13.2217C30.3886 13.6106 29.4664 13.8662 28.5109 13.9884C29.4886 13.3995 30.2442 12.4662 30.5998 11.344C29.6775 11.8995 28.6553 12.2884 27.5775 12.5106C26.6998 11.5551 25.4664 10.9995 24.0664 10.9995C21.4553 10.9995 19.322 13.1328 19.322 15.7662C19.322 16.144 19.3664 16.5106 19.4442 16.8551C15.4886 16.6551 11.9664 14.7551 9.62198 11.8773C9.21087 12.5773 8.97753 13.3995 8.97753 14.2662C8.97753 15.9217 9.81087 17.3884 11.0998 18.2217C10.3109 18.2217 9.57753 17.9995 8.93309 17.6662V17.6995C8.93309 20.0106 10.5775 21.944 12.7553 22.3773C12.0561 22.5686 11.3221 22.5953 10.6109 22.4551C10.9127 23.4023 11.5037 24.2311 12.3009 24.825C13.0981 25.4189 14.0614 25.7481 15.0553 25.7662C13.3705 27.1 11.282 27.821 9.13309 27.8106C8.75531 27.8106 8.37753 27.7884 7.99976 27.744C10.1109 29.0995 12.622 29.8884 15.3109 29.8884C24.0664 29.8884 28.8775 22.6217 28.8775 16.3217C28.8775 16.1106 28.8775 15.9106 28.8664 15.6995C29.7998 15.0328 30.5998 14.1884 31.2442 13.2217Z" fill="#333333"/>
</svg>
