<svg width="40" height="40" viewBox="0 0 40 40" fill="none" xmlns="http://www.w3.org/2000/svg">
<circle cx="19.9998" cy="20" r="20" fill="#01A89E" fill-opacity="0.2"/>
<path d="M14.3778 12.2224C14.3775 12.8117 14.1431 13.3768 13.7261 13.7934C13.3092 14.2099 12.7438 14.4438 12.1545 14.4435C11.5651 14.4432 11 14.2088 10.5834 13.7918C10.1669 13.3749 9.93306 12.8095 9.93335 12.2201C9.93364 11.6308 10.1681 11.0657 10.585 10.6491C11.002 10.2326 11.5673 9.99873 12.1567 9.99902C12.7461 9.99932 13.3112 10.2337 13.7277 10.6507C14.1442 11.0676 14.3781 11.633 14.3778 12.2224ZM14.4445 16.089H10V30.0001H14.4445V16.089ZM21.4667 16.089H17.0445V30.0001H21.4222V22.7001C21.4222 18.6335 26.7222 18.2557 26.7222 22.7001V30.0001H31.1111V21.189C31.1111 14.3335 23.2667 14.589 21.4222 17.9557L21.4667 16.089Z" fill="#333333"/>
</svg>
