<svg width="22" height="20" viewBox="0 0 22 20" fill="none" xmlns="http://www.w3.org/2000/svg">
<path d="M0.531738 3.12813C0.531738 2.48678 0.766453 1.95768 1.23586 1.54083C1.70527 1.12395 2.31553 0.915527 3.06659 0.915527C3.80425 0.915527 4.40107 1.12074 4.85708 1.53121C5.32649 1.95449 5.5612 2.50602 5.5612 3.18585C5.5612 3.80153 5.33321 4.31458 4.8772 4.72505C4.40779 5.14833 3.79083 5.35997 3.02635 5.35997H3.00624C2.26857 5.35997 1.67176 5.14833 1.21575 4.72505C0.759734 4.30177 0.531738 3.76946 0.531738 3.12813ZM0.79327 19.9631V7.11081H5.25944V19.9631H0.79327ZM7.73393 19.9631H12.2001V12.7866C12.2001 12.3377 12.2538 11.9913 12.361 11.7477C12.5488 11.3115 12.8338 10.9428 13.2161 10.6414C13.5983 10.3399 14.0778 10.1892 14.6545 10.1892C16.1566 10.1892 16.9077 11.1576 16.9077 13.0945V19.9631H21.3738V12.5942C21.3738 10.6959 20.9044 9.25607 19.9656 8.27483C19.0268 7.29359 17.7862 6.80297 16.2438 6.80297C14.5137 6.80297 13.1658 7.51485 12.2001 8.93861V8.97709H12.18L12.2001 8.93861V7.11081H7.73393C7.76075 7.52126 7.77417 8.79751 7.77417 10.9396C7.77417 13.0816 7.76075 16.0895 7.73393 19.9631Z" fill="white"/>
</svg>
