<svg width="22" height="16" viewBox="0 0 22 16" fill="none" xmlns="http://www.w3.org/2000/svg">
<path d="M14.1837 0.103067V0.0996094H15.161L15.5181 0.165307C15.7562 0.207959 15.9723 0.263855 16.1665 0.33301C16.3607 0.402166 16.5486 0.482854 16.7303 0.575056C16.912 0.667258 17.0767 0.761206 17.2246 0.856866C17.3712 0.951385 17.5027 1.05166 17.6192 1.15769C17.7345 1.26489 17.9143 1.29255 18.1586 1.24068C18.4029 1.18881 18.666 1.11677 18.9479 1.02457C19.2298 0.932367 19.5086 0.828633 19.7842 0.713368C20.0599 0.598102 20.2278 0.524918 20.2879 0.493798C20.3468 0.461537 20.3781 0.444248 20.3819 0.441931L20.3856 0.436744L20.4044 0.4281L20.4232 0.419455L20.442 0.410811L20.4608 0.402166L20.4646 0.39698L20.4702 0.393522L20.4759 0.390064L20.4796 0.384877L20.4984 0.379691L20.5172 0.376233L20.5135 0.402166L20.5078 0.4281L20.4984 0.454033L20.489 0.479967L20.4796 0.497256L20.4702 0.514545L20.4608 0.540478C20.4546 0.557767 20.4483 0.580813 20.442 0.609634C20.4358 0.638455 20.3762 0.753703 20.2635 0.955413C20.1507 1.15712 20.0098 1.3617 19.8406 1.56917C19.6715 1.77664 19.5199 1.93338 19.3858 2.03943C19.2505 2.14662 19.1609 2.22154 19.1171 2.26419C19.0732 2.30798 19.02 2.34832 18.9573 2.38521L18.8634 2.44226L18.8446 2.45091L18.8258 2.45955L18.822 2.46474L18.8164 2.4682L18.8107 2.47166L18.807 2.47684L18.7882 2.48549L18.7694 2.49413L18.7656 2.49932L18.76 2.50278L18.7544 2.50623L18.7506 2.51142L18.7469 2.51661L18.7412 2.52006L18.7356 2.52352L18.7318 2.52871H18.8258L19.352 2.42498C19.7028 2.35582 20.038 2.27226 20.3574 2.17429L20.8649 2.01868L20.9213 2.0014L20.9494 1.99275L20.9682 1.98411L20.987 1.97546L21.0058 1.96682L21.0246 1.95817L21.0622 1.95299L21.0998 1.94953V1.98411L21.0904 1.98756L21.081 1.99275L21.0773 1.99794L21.0716 2.0014L21.066 2.00485L21.0622 2.01004L21.0585 2.01523L21.0528 2.01868L21.0472 2.02214L21.0434 2.02733L21.0397 2.03252L21.034 2.03597L21.0246 2.05326L21.0152 2.07055L21.0096 2.07401C21.0071 2.07747 20.9275 2.17543 20.7709 2.36792C20.6143 2.56156 20.5297 2.65952 20.5172 2.66183C20.5047 2.66529 20.4871 2.68258 20.4646 2.7137C20.4433 2.74596 20.3105 2.87449 20.0661 3.09925C19.8218 3.324 19.5826 3.52397 19.3482 3.69917C19.1127 3.87552 18.9937 4.0922 18.9912 4.34924C18.9874 4.60511 18.973 4.89443 18.9479 5.21714C18.9229 5.53988 18.8759 5.88853 18.807 6.26313C18.7381 6.63773 18.6316 7.06131 18.4875 7.53387C18.3434 8.00642 18.168 8.46747 17.9613 8.91698C17.7545 9.3665 17.5384 9.7699 17.3129 10.1272C17.0874 10.4845 16.8806 10.7871 16.6927 11.0349C16.5048 11.2827 16.3137 11.5161 16.1195 11.7351C15.9253 11.9541 15.6797 12.2007 15.3828 12.4751C15.0846 12.7482 14.9217 12.8981 14.8942 12.9246C14.8654 12.9499 14.7426 13.0444 14.5258 13.2081C14.3103 13.3729 14.0785 13.5377 13.8304 13.7026C13.5836 13.8662 13.3568 14.0028 13.1501 14.1123C12.9434 14.2218 12.6941 14.3469 12.4021 14.4875C12.1115 14.6293 11.797 14.7607 11.4587 14.8817C11.1204 15.0027 10.7633 15.1151 10.3874 15.2188C10.0116 15.3225 9.64823 15.4032 9.29741 15.4609C8.94661 15.5185 8.54881 15.5675 8.10402 15.6078L7.43685 15.6683V15.677H6.21526V15.6683L6.05552 15.6597C5.94903 15.6539 5.86132 15.6481 5.79241 15.6424C5.72351 15.6366 5.46352 15.6049 5.01247 15.5473C4.56143 15.4897 4.20749 15.432 3.95063 15.3744C3.6938 15.3168 3.31165 15.2073 2.80422 15.0459C2.2968 14.8846 1.86266 14.7215 1.50183 14.5566C1.14225 14.393 0.916726 14.2892 0.825257 14.2454C0.735048 14.2028 0.633562 14.1498 0.520801 14.0864L0.351658 13.9913L0.347919 13.9861L0.342262 13.9827L0.336624 13.9792L0.332865 13.974L0.314071 13.9654L0.295278 13.9567L0.291538 13.9515L0.285881 13.9481L0.280243 13.9446L0.276484 13.9394L0.272744 13.9342L0.267087 13.9308H0.25769V13.8962L0.276484 13.8997L0.295278 13.9049L0.379849 13.9135C0.43623 13.9193 0.589717 13.9279 0.840292 13.9394C1.09089 13.951 1.35712 13.951 1.63902 13.9394C1.92092 13.9279 2.20911 13.902 2.50353 13.8616C2.79797 13.8213 3.14565 13.7521 3.54657 13.6542C3.94751 13.5562 4.31587 13.4398 4.65165 13.3049C4.98618 13.1689 5.22422 13.0675 5.36581 13.0006C5.50612 12.9349 5.72037 12.8128 6.00853 12.6341L6.44079 12.3661L6.44454 12.3609L6.45018 12.3575L6.45584 12.354L6.45958 12.3488L6.46334 12.3437L6.46898 12.3402L6.47463 12.3367L6.47837 12.3316L6.49717 12.3264L6.51596 12.3229L6.51972 12.3056L6.52536 12.2883L6.53101 12.2849L6.53475 12.2797L6.3844 12.271C6.28418 12.2653 6.18707 12.2595 6.0931 12.2538C5.99914 12.248 5.85193 12.2221 5.65145 12.176C5.451 12.1298 5.23488 12.0607 5.00307 11.9685C4.77129 11.8763 4.54577 11.7668 4.32651 11.64C4.10726 11.5132 3.94875 11.4077 3.85103 11.3236C3.75456 11.2406 3.62926 11.1231 3.47515 10.9709C3.32231 10.8176 3.18949 10.6603 3.07673 10.4989C2.96397 10.3376 2.85623 10.1514 2.7535 9.94049L2.59749 9.62583L2.5881 9.5999L2.5787 9.57396L2.57306 9.55667L2.5693 9.53939L2.59749 9.54284L2.62568 9.54803L2.83241 9.57396C2.97025 9.59125 3.18637 9.59701 3.48079 9.59125C3.77523 9.5855 3.97882 9.57396 4.09159 9.55667C4.20435 9.53939 4.27326 9.52785 4.29831 9.5221L4.3359 9.51345L4.38289 9.50481L4.42987 9.49616L4.43363 9.49098L4.43927 9.48752L4.44492 9.48406L4.44866 9.47887L4.41108 9.47023L4.37349 9.46159L4.3359 9.45294L4.29831 9.4443L4.26073 9.43565C4.23568 9.42989 4.19183 9.41836 4.12917 9.40107C4.06653 9.38379 3.89739 9.32039 3.62175 9.2109C3.34612 9.1014 3.12685 8.99478 2.96397 8.89105C2.80068 8.78701 2.64499 8.67324 2.49789 8.55046C2.3513 8.42598 2.19031 8.26576 2.01489 8.06982C1.83949 7.87389 1.68288 7.64624 1.54505 7.38691C1.40724 7.12757 1.30387 6.87977 1.23496 6.64348C1.16632 6.40859 1.12103 6.16843 1.09966 5.92599L1.06582 5.56292L1.08461 5.56638L1.1034 5.57157L1.1222 5.58021L1.14099 5.58886L1.15978 5.5975L1.17858 5.60615L1.46988 5.72717C1.66409 5.80786 1.90527 5.87701 2.19343 5.93464C2.48161 5.99226 2.65387 6.02397 2.71026 6.02973L2.79483 6.03837H2.96397L2.96023 6.03318L2.95457 6.02973L2.94893 6.02627L2.94518 6.02108L2.94144 6.01589L2.93578 6.01244L2.93014 6.00898L2.92638 6.00379L2.90759 5.99515L2.88879 5.9865L2.88505 5.98132L2.8794 5.97786L2.87376 5.9744L2.87 5.96921L2.85121 5.96057L2.83241 5.95192L2.82867 5.94674C2.82492 5.94442 2.77103 5.90754 2.66703 5.83609C2.56429 5.76347 2.45654 5.66954 2.34378 5.55428C2.23102 5.43901 2.11826 5.31799 2.0055 5.19121C1.89253 5.06414 1.79191 4.92819 1.7048 4.78492C1.61711 4.64085 1.52438 4.45757 1.42665 4.23513C1.33018 4.01383 1.25689 3.7908 1.20677 3.56605C1.15666 3.34129 1.12847 3.11942 1.1222 2.90042C1.11594 2.68142 1.1222 2.49413 1.14099 2.33853C1.15978 2.18293 1.19737 2.00715 1.25375 1.81122C1.31013 1.61528 1.39158 1.40781 1.49807 1.18881L1.65781 0.860324L1.66721 0.834391L1.67661 0.808457L1.68226 0.804999L1.686 0.799813L1.68976 0.794626L1.6954 0.791168L1.70106 0.794626L1.7048 0.799813L1.70856 0.804999L1.71419 0.808457L1.71985 0.811915L1.72359 0.817102L1.72735 0.822288L1.73299 0.825746L1.74238 0.843035L1.75178 0.860324L1.75744 0.863782L1.76118 0.868968L2.01489 1.1283C2.18403 1.30119 2.38451 1.49426 2.61629 1.70748C2.84809 1.92071 2.9765 2.03136 3.00156 2.03943C3.02663 2.04865 3.05794 2.07515 3.09552 2.11896C3.13311 2.16161 3.25841 2.26362 3.4714 2.42498C3.6844 2.58633 3.96317 2.77364 4.30771 2.98687C4.65227 3.20009 5.0344 3.41045 5.45412 3.61791C5.87386 3.82538 6.3249 4.01267 6.80726 4.17981C7.28964 4.34694 7.62792 4.45643 7.82211 4.5083C8.01633 4.56016 8.34834 4.62643 8.81818 4.70712C9.28802 4.78781 9.64197 4.83967 9.88001 4.86272C10.1181 4.88577 10.281 4.89903 10.3686 4.90248L10.5002 4.90594L10.4965 4.88001L10.4908 4.85408L10.4532 4.63796C10.4282 4.49389 10.4156 4.29218 10.4156 4.03285C10.4156 3.77351 10.4376 3.53436 10.4814 3.31536C10.5253 3.09636 10.5911 2.87449 10.6787 2.64973C10.7665 2.42498 10.8523 2.24458 10.9362 2.10859C11.0214 1.97373 11.1329 1.81986 11.2707 1.64697C11.4086 1.47408 11.5871 1.29544 11.8064 1.11101C12.0256 0.926593 12.2762 0.762347 12.5581 0.618278C12.84 0.474209 13.1 0.364701 13.338 0.289788C13.5761 0.214875 13.7766 0.165878 13.9394 0.142832C14.1023 0.119786 14.1837 0.106525 14.1837 0.103067Z" fill="white"/>
</svg>
