<svg width="30" height="22" viewBox="0 0 30 22" fill="none" xmlns="http://www.w3.org/2000/svg">
<path d="M15.4866 21.0832L9.48999 20.9718C7.54843 20.933 5.60204 21.0105 3.69856 20.6085C0.802914 20.0079 0.597776 17.0629 0.383121 14.5927C0.0873485 11.1199 0.201851 7.58402 0.760012 4.14018C1.07511 2.20782 2.31516 1.05477 4.23285 0.929297C10.7065 0.473934 17.2231 0.527899 23.6824 0.740343C24.3646 0.759818 25.0514 0.866262 25.7241 0.987425C29.0445 1.57837 29.1255 4.91562 29.3407 7.72496C29.5554 10.5633 29.4647 13.4162 29.0545 16.2352C28.7253 18.5692 28.0956 20.5266 25.4378 20.7155C22.1079 20.9626 18.8544 21.1615 15.5151 21.0982C15.5153 21.0832 15.4961 21.0832 15.4866 21.0832ZM11.9612 15.174C14.4705 13.7111 16.932 12.2726 19.4271 10.8196C16.913 9.35671 14.4562 7.91822 11.9612 6.46516V15.174Z" fill="white"/>
</svg>
